<?xml version="1.0" encoding="UTF-8"?>
<svg xmlns="http://www.w3.org/2000/svg" xmlns:xlink="http://www.w3.org/1999/xlink" width="20px" height="px" viewBox="0 0 20 16" version="1.1">
<g id="surface1">
<path style=" stroke:none;fill-rule:nonzero;fill:rgb(0%,0%,0%);fill-opacity:1;" d="M 2.757812 9.660156 C 3.0625 9.085938 2.96875 8.382812 2.523438 7.914062 C 1.855469 7.214844 1.5 6.375 1.5 5.5 C 1.5 3.515625 3.492188 1.5 6.5 1.5 C 9.507812 1.5 11.5 3.515625 11.5 5.5 C 11.5 7.484375 9.507812 9.5 6.5 9.5 C 6.089844 9.5 5.695312 9.460938 5.320312 9.386719 C 4.992188 9.324219 4.65625 9.367188 4.359375 9.519531 C 4.230469 9.585938 4.101562 9.648438 3.964844 9.707031 C 3.464844 9.929688 2.9375 10.128906 2.40625 10.269531 C 2.492188 10.125 2.574219 9.984375 2.652344 9.84375 C 2.6875 9.785156 2.722656 9.722656 2.753906 9.660156 Z M 6.5 11 C 10.089844 11 13 8.539062 13 5.5 C 13 2.460938 10.089844 0 6.5 0 C 2.910156 0 0 2.460938 0 5.5 C 0 6.804688 0.539062 8.003906 1.433594 8.945312 C 1.40625 9 1.375 9.054688 1.347656 9.105469 C 1.023438 9.679688 0.648438 10.246094 0.203125 10.734375 C -0.00390625 10.953125 -0.0546875 11.273438 0.0585938 11.542969 C 0.179688 11.820312 0.449219 12 0.75 12 C 2.09375 12 3.453125 11.585938 4.585938 11.070312 C 4.734375 11.003906 4.882812 10.929688 5.027344 10.859375 C 5.5 10.953125 5.992188 11 6.5 11 Z M 13.5 15 C 14.007812 15 14.496094 14.949219 14.972656 14.859375 C 15.117188 14.929688 15.265625 15.003906 15.414062 15.070312 C 16.546875 15.585938 17.90625 16 19.25 16 C 19.550781 16 19.820312 15.820312 19.9375 15.546875 C 20.054688 15.273438 20 14.953125 19.792969 14.738281 C 19.351562 14.25 18.976562 13.683594 18.648438 13.109375 C 18.621094 13.054688 18.589844 13.003906 18.5625 12.949219 C 19.460938 12.003906 20 10.804688 20 9.5 C 20 6.550781 17.253906 4.140625 13.804688 4.007812 C 13.933594 4.480469 14 4.980469 14 5.5 L 14 5.519531 C 16.726562 5.726562 18.5 7.628906 18.5 9.5 C 18.5 10.375 18.144531 11.214844 17.476562 11.914062 C 17.03125 12.382812 16.9375 13.085938 17.242188 13.65625 C 17.277344 13.71875 17.3125 13.78125 17.34375 13.839844 C 17.421875 13.980469 17.507812 14.121094 17.589844 14.265625 C 17.058594 14.125 16.53125 13.929688 16.03125 13.703125 C 15.898438 13.644531 15.765625 13.582031 15.636719 13.515625 C 15.339844 13.367188 15.003906 13.320312 14.679688 13.382812 C 14.300781 13.460938 13.902344 13.496094 13.496094 13.496094 C 11.570312 13.496094 10.058594 12.667969 9.222656 11.550781 C 8.722656 11.71875 8.195312 11.84375 7.660156 11.917969 C 8.71875 13.742188 10.9375 15 13.5 15 Z M 13.5 15 "/>
</g>
</svg>
