<?xml version="1.0" encoding="UTF-8"?>
<svg xmlns="http://www.w3.org/2000/svg" xmlns:xlink="http://www.w3.org/1999/xlink" width="20px" height="px" viewBox="0 0 20 22" version="1.1">
<g id="surface1">
<path style=" stroke:none;fill-rule:nonzero;fill:rgb(0%,0%,0%);fill-opacity:1;" d="M 20 4.125 C 20 2.609375 18.71875 1.375 17.144531 1.375 L 2.855469 1.375 C 1.28125 1.375 0 2.609375 0 4.125 L 0 17.875 C 0 19.390625 1.28125 20.625 2.855469 20.625 L 17.144531 20.625 C 18.71875 20.625 20 19.390625 20 17.875 Z M 11.867188 17.519531 C 11.867188 17.441406 11.867188 17.261719 11.871094 17.019531 C 11.875 16.53125 11.875 15.78125 11.875 15.140625 C 11.875 14.472656 11.644531 14.046875 11.371094 13.824219 C 13.023438 13.648438 14.761719 13.429688 14.761719 10.683594 C 14.761719 9.898438 14.472656 9.507812 14 9.007812 C 14.074219 8.820312 14.332031 8.0625 13.925781 7.074219 C 13.304688 6.886719 11.882812 7.84375 11.882812 7.84375 C 11.292969 7.683594 10.65625 7.601562 10.027344 7.601562 C 9.398438 7.601562 8.757812 7.683594 8.167969 7.84375 C 8.167969 7.84375 6.75 6.886719 6.128906 7.074219 C 5.722656 8.054688 5.972656 8.816406 6.054688 9.007812 C 5.582031 9.507812 5.355469 9.898438 5.355469 10.683594 C 5.355469 13.414062 7.023438 13.648438 8.675781 13.824219 C 8.460938 14.007812 8.269531 14.324219 8.199219 14.78125 C 7.777344 14.964844 6.691406 15.285156 6.042969 14.183594 C 5.636719 13.503906 4.90625 13.449219 4.90625 13.449219 C 4.183594 13.441406 4.855469 13.886719 4.855469 13.886719 C 5.339844 14.101562 5.679688 14.925781 5.679688 14.925781 C 6.113281 16.203125 8.183594 15.773438 8.183594 15.773438 C 8.183594 16.160156 8.1875 16.707031 8.1875 17.089844 C 8.1875 17.296875 8.191406 17.457031 8.191406 17.519531 C 8.191406 17.703125 8.058594 17.925781 7.679688 17.863281 C 4.730469 16.914062 2.667969 14.214844 2.667969 11.058594 C 2.667969 7.117188 5.804688 4.121094 9.902344 4.121094 C 14 4.121094 17.320312 7.117188 17.320312 11.058594 C 17.324219 14.214844 15.324219 16.917969 12.378906 17.863281 C 12.003906 17.925781 11.867188 17.703125 11.867188 17.519531 Z M 7.824219 15.164062 C 7.816406 15.097656 7.875 15.042969 7.960938 15.027344 C 8.042969 15.015625 8.125 15.050781 8.132812 15.109375 C 8.148438 15.164062 8.089844 15.21875 8 15.238281 C 7.914062 15.253906 7.835938 15.21875 7.824219 15.164062 Z M 7.417969 15.300781 C 7.320312 15.308594 7.253906 15.261719 7.253906 15.199219 C 7.253906 15.140625 7.320312 15.09375 7.410156 15.09375 C 7.496094 15.085938 7.574219 15.132812 7.574219 15.199219 C 7.574219 15.253906 7.507812 15.300781 7.417969 15.300781 Z M 6.78125 15.207031 C 6.695312 15.1875 6.636719 15.125 6.65625 15.070312 C 6.675781 15.011719 6.761719 14.988281 6.839844 15.003906 C 6.929688 15.03125 6.988281 15.09375 6.964844 15.152344 C 6.945312 15.207031 6.855469 15.230469 6.78125 15.207031 Z M 6.222656 14.894531 C 6.15625 14.835938 6.136719 14.753906 6.183594 14.714844 C 6.222656 14.667969 6.308594 14.679688 6.375 14.742188 C 6.433594 14.796875 6.457031 14.882812 6.414062 14.917969 C 6.375 14.964844 6.289062 14.957031 6.222656 14.894531 Z M 5.84375 14.464844 C 5.792969 14.398438 5.792969 14.324219 5.84375 14.296875 C 5.894531 14.257812 5.96875 14.289062 6.007812 14.351562 C 6.058594 14.414062 6.058594 14.492188 6.007812 14.527344 C 5.96875 14.554688 5.894531 14.527344 5.84375 14.464844 Z M 5.5625 14.085938 C 5.511719 14.027344 5.503906 13.964844 5.542969 13.933594 C 5.585938 13.894531 5.652344 13.917969 5.699219 13.960938 C 5.75 14.015625 5.757812 14.082031 5.71875 14.109375 C 5.679688 14.148438 5.613281 14.128906 5.5625 14.085938 Z M 5.292969 13.808594 C 5.238281 13.785156 5.210938 13.738281 5.226562 13.699219 C 5.246094 13.671875 5.292969 13.660156 5.351562 13.679688 C 5.410156 13.710938 5.4375 13.757812 5.417969 13.792969 C 5.402344 13.832031 5.34375 13.839844 5.292969 13.808594 Z M 5.292969 13.808594 "/>
</g>
</svg>
