<?xml version="1.0" encoding="UTF-8"?>
<svg xmlns="http://www.w3.org/2000/svg" xmlns:xlink="http://www.w3.org/1999/xlink" width="20px" height="px" viewBox="0 0 20 20" version="1.1">
<g id="surface1">
<path style=" stroke:none;fill-rule:nonzero;fill:rgb(0%,0%,0%);fill-opacity:1;" d="M 10 0 C 12.070312 0 13.75 1.679688 13.75 3.75 L 13.75 3.890625 C 13.75 4.503906 13.253906 5 12.640625 5 L 7.363281 5 C 6.75 5 6.253906 4.503906 6.253906 3.890625 L 6.253906 3.75 C 6.253906 1.679688 7.933594 0 10.003906 0 Z M 1.617188 4.117188 C 2.105469 3.628906 2.898438 3.628906 3.386719 4.117188 L 5.886719 6.617188 C 5.914062 6.644531 5.9375 6.671875 5.960938 6.699219 C 6.515625 6.414062 7.148438 6.253906 7.816406 6.253906 L 12.191406 6.253906 C 12.859375 6.253906 13.488281 6.414062 14.046875 6.699219 C 14.070312 6.671875 14.09375 6.644531 14.121094 6.617188 L 16.621094 4.117188 C 17.109375 3.628906 17.902344 3.628906 18.390625 4.117188 C 18.878906 4.605469 18.878906 5.398438 18.390625 5.886719 L 15.890625 8.386719 C 15.863281 8.414062 15.835938 8.4375 15.808594 8.460938 C 16.050781 8.929688 16.203125 9.449219 16.242188 10.003906 L 18.753906 10.003906 C 19.445312 10.003906 20.003906 10.5625 20.003906 11.253906 C 20.003906 11.945312 19.445312 12.503906 18.753906 12.503906 L 16.253906 12.503906 C 16.253906 13.464844 16.039062 14.371094 15.652344 15.183594 C 15.738281 15.234375 15.816406 15.296875 15.886719 15.371094 L 18.386719 17.871094 C 18.875 18.359375 18.875 19.152344 18.386719 19.640625 C 17.898438 20.128906 17.105469 20.128906 16.617188 19.640625 L 14.152344 17.175781 C 13.195312 18.027344 11.972656 18.589844 10.625 18.722656 L 10.625 9.375 C 10.625 9.03125 10.34375 8.75 10 8.75 C 9.65625 8.75 9.375 9.03125 9.375 9.375 L 9.375 18.71875 C 8.027344 18.585938 6.804688 18.023438 5.847656 17.171875 L 3.382812 19.632812 C 2.894531 20.121094 2.101562 20.121094 1.613281 19.632812 C 1.125 19.144531 1.125 18.351562 1.613281 17.863281 L 4.113281 15.363281 C 4.1875 15.289062 4.265625 15.230469 4.347656 15.175781 C 3.964844 14.367188 3.75 13.460938 3.75 12.5 L 1.25 12.5 C 0.558594 12.5 0 11.941406 0 11.25 C 0 10.558594 0.558594 10 1.25 10 L 3.761719 10 C 3.804688 9.449219 3.957031 8.925781 4.195312 8.457031 C 4.167969 8.433594 4.140625 8.410156 4.113281 8.382812 L 1.613281 5.882812 C 1.125 5.394531 1.125 4.601562 1.613281 4.113281 Z M 1.617188 4.117188 "/>
</g>
</svg>
